8888888888                888      8888888888                       
888                       888      888                              
888                       888      888                              
8888888  .d88b.   .d88b.  888      8888888 888d888 .d88b.   .d88b.  
888     d8P  Y8b d8P  Y8b 888      888     888P"  d8P  Y8b d8P  Y8b 
888     88888888 88888888 888      888     888    88888888 88888888 
888     Y8b.     Y8b.     888      888     888    Y8b.     Y8b.     
888      "Y8888   "Y8888  888      888     888     "Y8888   "Y8888  


################Credits To Feel Free, Pitic & Tony################


Genre:Action | Sci-Fi | Thriller
Language:English
IMDb: 
http://www.imdb.com/title/tt1440129
Source:PROPER.1080p.BluRay.x264.-SPARKS Thanks!
Encoder:Tony

Format : MPEG-4
Format profile : Base Media
Codec ID : isom
File size : 3.15 GiB
Duration : 2h 11mn
Overall bit rate mode : Variable
Overall bit rate : 3 438 Kbps

Video
ID : 1
Format : AVC
Format/Info : Advanced Video Codec
Format profile : High@L4.1
Format settings, CABAC : Yes
Format settings, ReFrames : 3 frames
Codec ID : avc1
Codec ID/Info : Advanced Video Coding
Duration : 2h 11mn
Bit rate : 3 000 Kbps
Maximum bit rate : 27.3 Mbps
Width : 1 280 pixels
Height : 536 pixels
Display aspect ratio : 2.40:1
Frame rate mode : Constant
Frame rate : 23.976 fps
Color space : YUV
Chroma subsampling : 4:2:0
Bit depth : 8 bits
Scan type : Progressive
Bits/(Pixel*Frame) : 0.182
Stream size : 2.74 GiB (87%)
Writing library : x264

Audio
ID : 2
Format : AAC
Format/Info : Advanced Audio Codec
Format profile : LC
Codec ID : 40
Duration : 2h 11mn
Bit rate mode : Variable
Bit rate : 444 Kbps
Maximum bit rate : 565 Kbps
Channel(s) : 6 channels
Channel positions : Front: L C R, Side: L R, LFE
Sampling rate : 48.0 KHz
Compression mode : Lossy
Stream size : 417 MiB (13%)


Plot:
A fleet of ships is forced to do battle with an armada of unknown origins in order to discover and thwart their destructive goals.


Screen Shots:
                                        
http://img716.imageshack.us/img716/7091/vlcsnap2012080410h06m35.png
 
http://img440.imageshack.us/img440/4039/vlcsnap2012080410h07m24.png
 
http://img88.imageshack.us/img88/310/vlcsnap2012080410h09m25.png
 
http://img338.imageshack.us/img338/1120/vlcsnap2012080410h07m41.png


################Credits To Feel Free, Pitic & Tony################


8888888888                888      8888888888                       
888                       888      888                              
888                       888      888                              
8888888  .d88b.   .d88b.  888      8888888 888d888 .d88b.   .d88b.  
888     d8P  Y8b d8P  Y8b 888      888     888P"  d8P  Y8b d8P  Y8b 
888     88888888 88888888 888      888     888    88888888 88888888 
888     Y8b.     Y8b.     888      888     888    Y8b.     Y8b.     
888      "Y8888   "Y8888  888      888     888     "Y8888   "Y8888  